<svg width="28" height="27" viewBox="0 0 28 27" fill="none" xmlns="http://www.w3.org/2000/svg">
<path d="M16.1328 2.67578L14.8438 1.38672C14.2578 0.859375 13.3789 0.859375 12.8516 1.38672L1.42578 12.7539C0.898438 13.3398 0.898438 14.2188 1.42578 14.7461L12.8516 26.1719C13.3789 26.6992 14.2578 26.6992 14.8438 26.1719L16.1328 24.8828C16.6602 24.2969 16.6602 23.418 16.1328 22.832L9.04297 16.0938H25.8594C26.6797 16.0938 27.2656 15.5078 27.2656 14.6875V12.8125C27.2656 12.0508 26.6797 11.4062 25.8594 11.4062H9.04297L16.1328 4.72656C16.6602 4.14062 16.7188 3.26172 16.1328 2.67578Z" fill="#FF4700"/>
</svg>
