<svg width="27" height="27" viewBox="0 0 27 27" fill="none" xmlns="http://www.w3.org/2000/svg">
<path d="M11.1328 2.67578L12.4219 1.38672C13.0078 0.859375 13.8867 0.859375 14.4141 1.38672L25.8398 12.7539C26.3672 13.3398 26.3672 14.2188 25.8398 14.7461L14.4141 26.1719C13.8867 26.6992 13.0078 26.6992 12.4219 26.1719L11.1328 24.8828C10.6055 24.2969 10.6055 23.418 11.1328 22.832L18.2227 16.0938H1.40625C0.585938 16.0938 0 15.5078 0 14.6875V12.8125C0 12.0508 0.585938 11.4062 1.40625 11.4062H18.2227L11.1328 4.72656C10.6055 4.14062 10.5469 3.26172 11.1328 2.67578Z" fill="#FF4700"/>
</svg>
