<svg width="124" height="62" viewBox="0 0 124 62" fill="none" xmlns="http://www.w3.org/2000/svg">
<g clip-path="url(#clip0_133_1358)">
<path d="M1.9294 31.1251C1.86458 31.7085 1.86458 32.5193 1.86458 33.1066V33.8227H0V36.778H1.86458V50.9784H6.37921V36.778H9.94059V33.8227H6.37921V32.9626C6.36822 32.4567 6.38859 31.9506 6.44022 31.4471C6.60799 29.9846 8.11033 29.4011 10.2533 29.7914V26.7035C9.59852 26.5581 8.92993 26.4832 8.25904 26.48C4.12189 26.48 2.1925 28.2001 1.9294 31.1251Z" fill="#FF4700"/>
<path d="M26.6532 41.0024C26.6532 40.059 26.6189 39.1497 26.554 38.3502C26.31 35.3457 24.4607 33.2354 19.5876 33.2354C15.4352 33.2354 12.2628 35.4442 12.1331 39.3467L16.5143 39.3126C16.644 37.4182 17.6277 36.3876 19.4237 36.3876C21.2196 36.3876 21.9746 37.2666 22.0928 38.4677C22.1455 39.0078 22.1671 39.5505 22.1576 40.0931V40.4492H21.0595C14.7489 40.4492 11.4773 42.5937 11.4773 46.3977C11.4773 49.6788 14.0625 51.433 17.071 51.433C18.5921 51.494 20.0964 51.0979 21.3874 50.2963L22.2377 48.4436L22.5656 50.9783H26.9773C26.7624 49.5294 26.6541 48.0668 26.6532 46.6023V41.0024ZM22.1729 44.6093C22.1729 47.0152 20.6477 48.2807 18.8021 48.2807C17.2007 48.2807 16.1559 47.5646 16.1559 46.0377C16.1559 43.7644 18.5772 42.9498 22.1729 43.2113V44.6093Z" fill="#FF4700"/>
<path d="M37.6081 36.3725C39.4726 36.3725 40.7805 37.4144 41.2038 39.915H45.6536C45.3257 36.0808 42.4163 33.2202 37.7072 33.2202C32.9295 33.2202 29.0059 36.5354 29.0059 42.4497C29.0059 48.4285 32.5711 51.4178 37.3145 51.4178C41.6651 51.4178 44.8681 49.2393 45.6193 44.9769H41.1084C40.6509 47.1554 39.343 48.258 37.5776 48.258C35.3203 48.258 33.6845 46.4394 33.6845 42.1466C33.6845 38.2404 35.3202 36.3725 37.6081 36.3725Z" fill="#FF4700"/>
<path d="M49.642 46.0832C49.642 47.0569 49.642 47.8033 49.7068 48.5838C49.9051 51.02 51.11 52.1263 54.4807 52.1263C55.478 52.1317 56.474 52.0556 57.4587 51.899V48.974C54.9421 49.1673 54.3206 48.777 54.1871 47.0796C54.1566 46.625 54.1566 46.1362 54.1566 45.5641V37.5659H57.7523V34.6107H54.1452V30.3521H49.642V34.6107H47.0911V37.5659H49.642V46.0832Z" fill="#FF4700"/>
<path d="M68.1199 52.2212C73.9081 52.2212 77.1453 48.3528 77.1453 43.128C77.1453 37.9033 73.9081 34.0349 68.1199 34.0349C62.3317 34.0349 59.1021 37.8578 59.1021 43.1243C59.1021 48.3907 62.3317 52.2212 68.1199 52.2212ZM68.1199 37.1758C70.8348 37.1758 72.4668 39.3885 72.4668 43.1243C72.4668 46.86 70.8348 49.0727 68.1199 49.0727C65.405 49.0727 63.7692 46.8297 63.7692 43.1243C63.7692 39.4188 65.405 37.1758 68.1199 37.1758Z" fill="#FF4700"/>
<path d="M84.5998 43.8403C84.5998 39.1914 86.4644 37.5357 90.224 37.7782V34.1864C89.8068 34.0898 89.3788 34.0465 88.9505 34.0576C87.8487 34.0747 86.791 34.4911 85.9763 35.2283L84.5998 37.6304V34.4782H80.0737V51.7665H84.5846L84.5998 43.8403Z" fill="#FF4700"/>
<path d="M97.0303 34.478H92.5156V51.7663H97.0303V34.478Z" fill="#FF4700"/>
<path d="M110.143 51.0882L110.99 49.2317L111.318 51.7664H115.733C115.518 50.3137 115.41 48.8473 115.409 47.379V41.7905C115.409 40.8471 115.375 39.9415 115.31 39.1383C115.047 36.1452 113.217 34.0386 108.344 34.0386C104.188 34.0386 101.019 36.2474 100.885 40.1461L105.27 40.1158C105.4 38.2214 106.38 37.1871 108.184 37.1871C109.987 37.1871 110.731 38.0661 110.853 39.2671C110.908 39.8071 110.931 40.3498 110.921 40.8925V41.2525H109.816C103.501 41.2525 100.233 43.3931 100.233 47.1971C100.233 50.4782 102.815 52.2324 105.827 52.2324C107.349 52.2914 108.853 51.8926 110.143 51.0882ZM104.908 46.8296C104.908 44.5563 107.329 43.7417 110.929 43.9993V45.3974C110.929 47.8033 109.404 49.0726 107.558 49.0726C105.957 49.0726 104.908 48.3527 104.908 46.8296Z" fill="#FF4700"/>
<path d="M119.626 0H105.747C104.294 0 100.664 0.88658 98.8492 1.70117H114.242C116.759 1.70117 118.818 3.59558 118.818 5.91811V23.0852C118.818 25.4077 116.77 27.3021 114.242 27.3021H99.5851L92.47 32.2276H96.5042L106.765 28.9995H119.623C122.032 28.9995 123.996 26.48 123.996 24.2824V3.98961C124 1.78832 122.036 0 119.626 0Z" fill="#FF4700"/>
<path d="M112.233 22.6608C111.955 22.6602 111.681 22.6048 111.425 22.4979C111.148 22.3802 110.891 22.2218 110.662 22.0281L110.281 23.2329C110.424 23.324 110.571 23.4075 110.723 23.483C110.871 23.5543 111.024 23.6139 111.181 23.6611C111.353 23.7103 111.529 23.7457 111.707 23.7671C111.926 23.7913 112.146 23.8026 112.366 23.8012C112.757 23.8056 113.145 23.7375 113.51 23.6004C113.841 23.476 114.141 23.2836 114.391 23.0359C114.634 22.7929 114.821 22.5009 114.94 22.1796C115.07 21.8304 115.135 21.4607 115.131 21.0885C115.136 20.7409 115.076 20.3954 114.956 20.0693C114.846 19.7767 114.679 19.5088 114.464 19.2812C114.249 19.0577 113.989 18.8821 113.701 18.7659C113.381 18.6381 113.039 18.575 112.694 18.5803C112.53 18.5712 112.365 18.5814 112.203 18.6106L112.347 17.3148H114.891L114.952 16.1213H111.165L110.654 20.0806C110.891 19.9795 111.134 19.8959 111.383 19.8306C111.611 19.773 111.845 19.7437 112.081 19.7434C112.283 19.7276 112.488 19.753 112.68 19.8182C112.873 19.8833 113.05 19.9868 113.202 20.1223C113.333 20.2648 113.435 20.4322 113.5 20.6144C113.566 20.7966 113.594 20.99 113.583 21.1832C113.601 21.5762 113.464 21.9607 113.202 22.2554C113.079 22.388 112.929 22.4928 112.762 22.5627C112.595 22.6326 112.414 22.6661 112.233 22.6608Z" fill="#FF4700"/>
<path d="M109.682 17.2959L109.732 16.1213H105.739V23.68H107.177V20.3042H109.312V19.1107H107.177V17.2959H109.682Z" fill="#FF4700"/>
<path d="M1.49097 57.0934C1.92719 56.9665 2.37869 56.899 2.83316 56.8926C4.10417 56.8926 4.73968 57.447 4.73968 58.5559C4.75957 58.7899 4.72979 59.0255 4.65229 59.2474C4.57479 59.4693 4.45127 59.6726 4.28974 59.8441C3.87068 60.162 3.3468 60.3121 2.82172 60.2646H2.00191V61.9279H1.49097V57.0934ZM2.74164 59.8062C2.97201 59.8096 3.20239 59.8007 3.4318 59.7796C3.6025 59.766 3.77123 59.7343 3.93512 59.6849C4.14923 59.3567 4.25211 58.969 4.22873 58.5786C4.24474 58.4067 4.22113 58.2334 4.15969 58.0719C4.09824 57.9104 4.00058 57.7649 3.87412 57.6465C3.57394 57.4339 3.20847 57.332 2.84078 57.3586C2.56349 57.3543 2.28676 57.3849 2.01717 57.4495V59.8062H2.74164Z" fill="#1D1D1B"/>
<path d="M7.92719 59.5297C7.87933 58.8371 8.04707 58.1466 8.40763 57.5519C8.72792 57.1124 9.26175 56.8927 10.0167 56.8927C10.2938 56.87 10.5723 56.9148 10.828 57.023C11.0838 57.1313 11.3092 57.2998 11.4848 57.5141C11.8401 58.0659 12.006 58.7172 11.9576 59.3706C12.0051 60.0608 11.8373 60.7487 11.4771 61.3407C11.1568 61.7802 10.623 62 9.86802 62C8.57667 62 7.92973 61.1766 7.92719 59.5297ZM10.5429 61.4734C10.6989 61.4469 10.8512 61.4024 10.9967 61.3407C11.1411 61.0765 11.2512 60.7951 11.3246 60.5034C11.4048 60.1697 11.4432 59.8273 11.439 59.4842C11.4811 58.9239 11.3593 58.3633 11.0882 57.8702C10.9496 57.6963 10.7698 57.5592 10.5649 57.4712C10.3599 57.3833 10.1362 57.3472 9.91378 57.3663C9.71813 57.367 9.52292 57.3848 9.33038 57.4193C9.17201 57.4445 9.01798 57.4917 8.87282 57.5595C8.5744 58.1336 8.4287 58.774 8.44957 59.4198C8.40643 59.9774 8.52696 60.5354 8.79656 61.0263C8.93747 61.2032 9.12114 61.3419 9.33048 61.4293C9.53982 61.5168 9.76803 61.5502 9.99385 61.5264C10.1781 61.5252 10.3619 61.5075 10.5429 61.4734Z" fill="#1D1D1B"/>
<path d="M15.2063 57.014L15.7592 56.9458C16.0007 58.239 16.34 59.6977 16.7773 61.3219H16.8345C17.2285 60.3343 17.6263 59.1976 18.0279 57.9119C17.9479 57.5899 17.8869 57.3057 17.8487 57.0633L18.3597 57.0064C18.516 57.7642 18.699 58.4765 18.9011 59.166C19.1032 59.8556 19.332 60.5793 19.5799 61.3257H19.6523C20.0692 59.7748 20.4073 58.3161 20.6666 56.9496L21.2195 57.0178C20.8458 58.6874 20.4187 60.3292 19.9383 61.9432H19.2939C18.8872 60.7813 18.5567 59.7407 18.3025 58.8213H18.2148C17.8335 59.9832 17.4522 61.0188 17.0709 61.9281H16.4837C15.9956 60.2989 15.5698 58.6609 15.2063 57.014Z" fill="#1D1D1B"/>
<path d="M25.1126 61.8484C24.8152 61.7461 24.6665 61.5756 24.6665 61.3331V56.9722H27.6788V57.4382H25.166V59.2151H27.4538V59.6698H25.166V61.4354C25.5574 61.5043 25.9544 61.5373 26.3519 61.5339C26.7888 61.5398 27.225 61.4966 27.6521 61.4051L27.7665 61.8484C27.2957 61.9591 26.8127 62.01 26.329 61.9999C25.918 62.0139 25.5074 61.9628 25.1126 61.8484Z" fill="#1D1D1B"/>
<path d="M34.3935 61.9091C34.304 61.853 34.2356 61.7691 34.199 61.6704L33.7033 60.5565C33.6483 60.4241 33.5806 60.2972 33.5012 60.1776C33.434 60.0817 33.3417 60.0057 33.2343 59.9579C33.0828 59.8986 32.9204 59.8715 32.7577 59.8783H31.8654V61.9281H31.3545V57.086C31.7867 56.9596 32.2347 56.8946 32.6852 56.8927C33.1593 56.8552 33.6319 56.981 34.0236 57.2489C34.1745 57.3878 34.2919 57.5587 34.3672 57.7489C34.4424 57.9392 34.4736 58.1438 34.4583 58.3476C34.4715 58.6259 34.4014 58.9019 34.2568 59.1406C34.1123 59.3793 33.8998 59.5701 33.6461 59.6889V59.7533C33.759 59.8064 33.8611 59.8796 33.9474 59.9692C34.0334 60.0723 34.104 60.1871 34.1571 60.3102L34.7252 61.5605L35.1332 61.6249V61.9167C34.9939 61.9605 34.8485 61.9822 34.7023 61.9811C34.5945 61.988 34.487 61.963 34.3935 61.9091ZM33.3601 59.4199C33.5374 59.3125 33.6875 59.166 33.7986 58.9917C33.8985 58.7988 33.9459 58.5833 33.9359 58.3666C33.9475 58.2261 33.9267 58.0849 33.8752 57.9536C33.8236 57.8223 33.7427 57.7044 33.6385 57.6088C33.3469 57.4285 33.0047 57.3462 32.6624 57.3739C32.3947 57.3735 32.1277 57.4002 31.8654 57.4535V59.435L33.3601 59.4199Z" fill="#1D1D1B"/>
<path d="M38.9121 61.8484C38.6109 61.7461 38.4622 61.5756 38.4622 61.3331V56.9722H41.4783V57.4382H38.9693V59.2151H41.2571V59.6698H38.9693V61.4354C39.3607 61.5045 39.7576 61.5375 40.1551 61.5339C40.5921 61.5396 41.0282 61.4964 41.4554 61.4051L41.566 61.8484C41.0952 61.9591 40.6121 62.01 40.1285 61.9999C39.7175 62.0144 39.3068 61.9632 38.9121 61.8484Z" fill="#1D1D1B"/>
<path d="M45.1501 57.0441C45.5979 56.9422 46.0559 56.8914 46.5152 56.8926C47.3083 56.8926 47.8777 57.1022 48.2235 57.5215C48.6066 58.0625 48.7898 58.7183 48.742 59.3781C48.7534 59.8365 48.6877 60.2937 48.5476 60.7307C48.4208 61.0932 48.1733 61.402 47.846 61.6059C47.4158 61.8437 46.9266 61.9554 46.4351 61.9279H45.1501V57.0441ZM46.4275 61.4619C46.8829 61.4715 47.3374 61.4166 47.7773 61.299C47.9392 61.0602 48.0531 60.7926 48.1129 60.5109C48.1957 60.1557 48.2354 59.7919 48.2311 59.4273C48.2433 59.0304 48.1865 58.6343 48.0633 58.2566C47.9684 57.9732 47.7733 57.7336 47.5142 57.5822C47.1968 57.419 46.8417 57.3419 46.4847 57.3586C46.2103 57.3627 45.9365 57.3842 45.6649 57.423V61.4619H46.4275Z" fill="#1D1D1B"/>
<path d="M54.6829 57.067C55.1067 56.9527 55.5439 56.8941 55.9831 56.8927C56.4439 56.8583 56.9031 56.9784 57.2872 57.2337C57.4336 57.3594 57.5484 57.5174 57.6226 57.695C57.6967 57.8726 57.7281 58.0649 57.7142 58.2567C57.7206 58.4882 57.6624 58.717 57.5459 58.9176C57.4295 59.1182 57.2594 59.2829 57.0546 59.3933V59.435C57.3108 59.4897 57.5404 59.6302 57.7049 59.833C57.8694 60.0357 57.9589 60.2885 57.9583 60.5489C57.9671 60.8124 57.9066 61.0736 57.7829 61.3067C57.643 61.5176 57.4364 61.6763 57.1957 61.7576C56.8164 61.8779 56.419 61.9317 56.0212 61.9167H54.6981L54.6829 57.067ZM56.78 59.2001C56.9178 59.0861 57.028 58.9429 57.1026 58.7809C57.1771 58.6189 57.2142 58.4424 57.2109 58.2643C57.2227 58.1326 57.2009 58 57.1476 57.8788C57.0943 57.7577 57.0112 57.6518 56.9059 57.5709C56.6172 57.4092 56.287 57.3354 55.9564 57.3588C55.7008 57.3638 55.4458 57.3879 55.1938 57.4307V59.2001H56.78ZM55.9488 61.4734C56.2595 61.4828 56.57 61.4497 56.8715 61.3749C57.0544 61.3378 57.2172 61.2353 57.3291 61.0869C57.4197 60.9293 57.4633 60.7492 57.4549 60.5679C57.46 60.4443 57.4369 60.3212 57.3873 60.2077C57.3378 60.0942 57.2632 59.9933 57.169 59.9124C56.9303 59.7317 56.6332 59.6441 56.3339 59.6661H55.19V61.4734H55.9488Z" fill="#1D1D1B"/>
<path d="M62.9953 60.1435H62.8313C62.4806 59.693 62.1609 59.2196 61.8742 58.7264C61.5663 58.1909 61.2925 57.6366 61.0544 57.0669L61.5654 56.9305C61.7751 57.4501 62.0171 57.9563 62.2899 58.4461C62.536 58.8943 62.8098 59.3271 63.1097 59.7418H63.3918C63.6908 59.3252 63.9646 58.8913 64.2116 58.4423C64.4813 57.952 64.7207 57.4459 64.9285 56.9268L65.4394 57.0632C65.2026 57.6327 64.9301 58.187 64.6234 58.7227C64.3382 59.2175 64.0171 59.6911 63.6626 60.1397H63.5062V61.9242H62.9953V60.1435Z" fill="#1D1D1B"/>
<path d="M70.9417 61.5756L71.2429 60.8178C71.7118 61.0679 72.2359 61.1981 72.7681 61.1967C73.0432 61.2015 73.318 61.1774 73.5879 61.1247C73.6447 60.9641 73.6718 60.7947 73.668 60.6246C73.6739 60.5372 73.6594 60.4498 73.6256 60.3689C73.5919 60.2881 73.5398 60.2161 73.4735 60.1585C73.2594 60.0203 73.0195 59.9263 72.7681 59.882C72.4581 59.8121 72.1555 59.7132 71.8644 59.5864C71.638 59.4782 71.4445 59.3121 71.3039 59.1053C71.1572 58.8801 71.0839 58.6155 71.0942 58.3475C71.087 58.1487 71.1224 57.9507 71.198 57.7665C71.2736 57.5823 71.3877 57.4162 71.5327 57.279C71.9122 56.9734 72.3954 56.8242 72.8825 56.8623C73.1739 56.8561 73.4649 56.8879 73.748 56.957C73.976 57.0152 74.1953 57.1031 74.4001 57.2184V57.5064C74.3989 57.6536 74.3862 57.8006 74.3619 57.9459C74.3402 58.0823 74.307 58.2166 74.2628 58.3475H73.5917L73.5002 57.6958C73.2883 57.6626 73.0741 57.6461 72.8596 57.6466C72.6328 57.6276 72.4059 57.6807 72.2114 57.7981C72.139 57.8588 72.0825 57.936 72.0467 58.0231C72.0108 58.1101 71.9967 58.2046 72.0055 58.2982C72.0003 58.3861 72.0175 58.4738 72.0555 58.5533C72.0935 58.6327 72.151 58.7014 72.2228 58.7529C72.4698 58.8952 72.7414 58.9903 73.0236 59.0333C73.4549 59.1041 73.8636 59.274 74.217 59.5296C74.3492 59.6537 74.452 59.8055 74.5179 59.9738C74.5839 60.1422 74.6113 60.3231 74.5984 60.5033C74.6075 60.7052 74.5731 60.9066 74.4975 61.0941C74.4219 61.2817 74.3067 61.451 74.1599 61.5907C73.7562 61.8974 73.2513 62.0422 72.7452 61.9961C72.118 62.0084 71.4978 61.8638 70.9417 61.5756Z" fill="#1D1D1B"/>
<path d="M78.0186 56.9382H78.9299V61.9281H78.0338L78.0186 56.9382Z" fill="#1D1D1B"/>
<path d="M82.6666 56.9382H83.8105L84.8248 59.67H84.882L85.9039 56.9382H87.0249L87.2232 61.9281H86.3195L86.2318 59.4199V58.1582H86.167L85.1908 60.5793H84.4969L83.5055 58.1431H83.4407V59.4047L83.3453 61.9129H82.4417L82.6666 56.9382Z" fill="#1D1D1B"/>
<path d="M90.7502 57.1012C91.2531 56.9481 91.7763 56.8714 92.3022 56.8738C93.6774 56.8738 94.365 57.4447 94.365 58.5864C94.3849 58.84 94.348 59.0948 94.257 59.3326C94.166 59.5704 94.0232 59.7852 93.8388 59.9617C93.3663 60.304 92.7859 60.4667 92.203 60.4202H91.6425V61.9357H90.7502V57.1012ZM92.0886 59.6207C92.3152 59.6232 92.5417 59.6144 92.7673 59.5942C92.9358 59.5815 93.1029 59.5548 93.2669 59.5146C93.4186 59.2442 93.4925 58.9375 93.4804 58.6281C93.4934 58.4927 93.4739 58.3561 93.4235 58.2297C93.3732 58.1032 93.2933 57.9905 93.1906 57.9006C92.9332 57.7371 92.6298 57.6601 92.325 57.6809C92.0958 57.6768 91.8668 57.6984 91.6425 57.7453V59.6397L92.0886 59.6207Z" fill="#1D1D1B"/>
<path d="M97.6138 56.9382H98.5098V61.1059H100.729V61.9281H97.6138V56.9382Z" fill="#1D1D1B"/>
<path d="M104.252 61.3786C103.856 60.843 103.666 60.1848 103.715 59.5221C103.659 58.8105 103.855 58.1018 104.267 57.5178C104.487 57.285 104.757 57.1048 105.057 56.9906C105.357 56.8764 105.679 56.8313 105.999 56.8586C107.409 56.8586 108.116 57.6845 108.119 59.3364C108.173 60.0473 107.976 60.7547 107.562 61.3369C107.341 61.5689 107.07 61.7483 106.77 61.8618C106.47 61.9753 106.147 62.0199 105.827 61.9924C105.535 62.0134 105.242 61.9692 104.97 61.863C104.697 61.7568 104.452 61.5913 104.252 61.3786ZM106.921 61.0452C107.138 60.5532 107.249 60.0214 107.245 59.4842C107.256 59.1418 107.216 58.7998 107.127 58.4688C107.06 58.2327 106.912 58.0275 106.708 57.8891C106.458 57.7437 106.17 57.6752 105.88 57.6921C105.555 57.6797 105.23 57.7299 104.923 57.8399C104.714 58.332 104.611 58.8627 104.622 59.3971C104.612 59.7424 104.655 60.0872 104.748 60.42C104.814 60.6576 104.964 60.8635 105.171 60.9997C105.42 61.1373 105.703 61.203 105.987 61.1892C106.3 61.1942 106.612 61.1415 106.906 61.0338L106.921 61.0452Z" fill="#1D1D1B"/>
<path d="M111.531 56.9382H112.626L114.715 60.799H114.78L114.692 59.5146V56.9534H115.592V61.9432H114.498L112.401 58.0862H112.336L112.423 59.3782V61.9281H111.531V56.9382Z" fill="#1D1D1B"/>
</g>
<defs>
<clipPath id="clip0_133_1358">
<rect width="124" height="62" fill="white"/>
</clipPath>
</defs>
</svg>
